<svg width="17" height="16" viewBox="0 0 17 16" fill="none" xmlns="http://www.w3.org/2000/svg">
<path fill-rule="evenodd" clip-rule="evenodd" d="M2.93109 1.62048C2.93109 1.0682 2.48338 0.620483 1.93109 0.620483C1.37881 0.620483 0.931091 1.0682 0.931091 1.62048V8.40709C0.931091 8.45949 0.935122 8.51096 0.942891 8.56119C0.941744 8.5808 0.941162 8.60058 0.941162 8.62048C0.941162 9.17277 1.38888 9.62048 1.94116 9.62048H13.516L8.85917 14.2773C8.46864 14.6679 8.46864 15.301 8.85917 15.6916C9.24969 16.0821 9.88286 16.0821 10.2734 15.6916L16.6373 9.32759C17.0279 8.93707 17.0279 8.3039 16.6373 7.91338L10.2734 1.54942C9.88286 1.15889 9.24969 1.15889 8.85917 1.54942C8.46864 1.93994 8.46864 2.5731 8.85917 2.96363L13.516 7.62048H2.93109V1.62048Z" fill="#0C68E9"/>
</svg>
