<svg width="17" height="18" viewBox="0 0 17 18" fill="none" xmlns="http://www.w3.org/2000/svg">
<path fill-rule="evenodd" clip-rule="evenodd" d="M2.85651 1.81802C2.85651 1.26574 2.40879 0.818024 1.85651 0.818024C1.30422 0.818024 0.856506 1.26574 0.856506 1.81802V9.81802C0.856506 10.3703 1.30422 10.818 1.85651 10.818C1.85831 10.818 1.86012 10.818 1.86193 10.818C1.86348 10.818 1.86503 10.818 1.86658 10.818H13.4414L8.78458 15.4749C8.39406 15.8654 8.39406 16.4986 8.78458 16.8891C9.17511 17.2796 9.80827 17.2796 10.1988 16.8891L16.5628 10.5251C16.9533 10.1346 16.9533 9.50144 16.5628 9.11091L10.1988 2.74695C9.80827 2.35643 9.17511 2.35643 8.78458 2.74695C8.39406 3.13748 8.39406 3.77064 8.78458 4.16117L13.4414 8.81802H2.85651V1.81802Z" fill="#0C68E9"/>
</svg>
